<svg width="1057" height="912" viewBox="0 0 1057 912" fill="none" xmlns="http://www.w3.org/2000/svg">
<path d="M839.354 379.177C839.354 563.43 689.886 712.354 506.177 712.354C321.924 712.354 173 562.886 173 379.177C173 194.924 322.468 46 506.177 46C690.43 46 839.354 195.468 839.354 379.177Z" fill="#F9F3F3"/>
<path d="M226.269 464.538C225.726 464.538 225.182 464.538 224.639 463.994C226.813 446.058 227.356 428.665 226.269 414.534C223.008 418.339 218.116 420.513 212.681 420.513C202.898 420.513 194.745 412.36 194.745 402.576C194.745 396.598 198.006 391.163 202.354 387.901C200.724 385.727 200.18 383.553 200.18 380.836C200.18 373.77 205.615 368.335 212.681 368.335H213.225C211.594 366.161 210.507 363.443 210.507 360.726C210.507 354.203 215.942 348.225 223.008 348.225C229.53 348.225 235.509 353.66 235.509 360.726C235.509 363.443 234.422 366.161 232.791 368.335C239.314 368.335 244.749 373.77 244.749 380.836C244.749 383.553 244.205 385.727 242.575 387.901C249.097 389.532 253.989 395.511 253.989 402.576C253.989 411.273 246.923 417.795 238.227 417.795C233.878 417.795 230.074 416.164 227.356 413.447C227.9 428.122 227.9 445.514 225.726 463.994L226.269 464.538Z" fill="#FBD4D1"/>
<path d="M317.578 486.809C317.035 486.809 316.491 486.265 315.948 486.265C318.665 465.068 318.665 443.871 318.122 427.022C314.317 431.37 308.339 434.631 301.816 434.631C289.859 434.631 280.619 424.848 280.619 413.434C280.619 405.824 284.424 399.846 289.859 396.041C288.228 393.867 287.141 390.606 287.141 387.345C287.141 379.192 293.664 372.67 301.816 372.67H302.903C300.729 369.952 299.642 366.691 299.642 363.43C299.642 355.277 306.165 348.755 314.317 348.755C322.47 348.755 328.992 355.277 328.992 363.43C328.992 366.691 327.905 369.952 325.731 372.67C333.884 372.67 340.406 379.192 340.406 387.345C340.406 390.606 339.319 393.323 337.689 395.497C345.298 397.672 351.277 404.737 351.277 413.434C351.277 423.76 343.124 431.913 332.797 431.913C327.905 431.913 323.014 429.739 319.752 426.478C320.84 443.871 320.296 465.068 317.578 486.809Z" fill="#FBD4D1"/>
<path d="M517.04 712.94C517.04 712.94 517.04 712.94 517.584 712.94C517.584 712.94 517.584 712.94 517.04 712.94ZM517.584 712.94H518.127H517.584ZM518.127 712.94C518.127 712.94 518.127 712.94 518.671 712.94H519.214C518.671 712.94 518.671 712.94 518.127 712.94ZM519.214 712.94C519.758 712.94 520.301 712.94 520.301 712.94H520.845H521.388H521.932H522.475H523.019H523.562C639.875 706.961 740.426 641.195 795.322 546.08C739.883 642.826 637.701 708.592 519.214 713.483V712.94Z" fill="#FBD8D6"/>
<path d="M506.182 712.913H506.726C506.726 712.913 506.726 712.913 506.182 712.913ZM506.726 712.913C506.726 712.913 506.726 712.913 507.269 712.913H506.726ZM507.269 712.913H507.813C507.813 712.913 507.813 712.913 507.269 712.913ZM508.356 712.913C508.356 712.913 508.356 712.913 508.9 712.913H508.356ZM508.9 712.913H509.443C509.443 712.913 509.443 712.913 508.9 712.913ZM509.443 712.913C509.443 712.913 509.443 712.913 509.987 712.913H509.443ZM509.987 712.913H510.53H509.987ZM510.53 712.913H511.074H510.53ZM510.53 712.913C510.53 712.913 510.53 712.913 511.074 712.913H510.53ZM511.074 712.913H511.617H511.074ZM511.617 712.913H512.161H511.617ZM512.161 712.913H512.705H512.161ZM512.705 712.913H513.248H512.705ZM513.248 712.913H513.792H513.248ZM513.792 712.913H514.335H513.792ZM514.335 712.913H514.879H514.335ZM514.879 712.913H515.422H514.879ZM515.422 712.913H515.966H515.422ZM497.486 712.913C497.486 712.913 497.486 712.913 498.03 712.913H497.486ZM515.966 712.913H516.509H515.966ZM516.509 712.913H517.053H516.509ZM517.053 712.913H517.596C517.596 712.913 517.596 712.913 517.053 712.913ZM496.399 712.913H496.942H496.399ZM517.596 712.913H518.14H517.596ZM495.855 712.913C495.855 712.913 495.855 712.913 496.399 712.913H495.855ZM518.14 712.913H518.683H518.14ZM495.312 712.913H494.768C495.312 712.913 495.312 712.913 495.855 712.913H495.312ZM518.683 712.913H519.227C519.227 712.913 519.227 712.913 518.683 712.913ZM494.225 712.913C494.225 712.913 494.225 712.913 494.768 712.913H494.225ZM518.683 712.913C519.227 712.913 519.77 712.913 520.857 712.913C520.314 712.913 519.77 712.913 519.77 712.913H519.227H518.683ZM493.681 712.913C493.681 712.913 493.681 712.913 493.138 712.913H492.594C493.138 712.913 493.138 712.913 493.681 712.913ZM492.594 712.913H492.051H491.507C490.964 712.913 490.964 712.913 490.42 712.913H489.877C338.235 705.847 213.226 597.144 181.158 453.655C195.29 457.459 209.965 461.264 225.183 465.069C225.727 465.069 226.27 465.069 226.814 465.612C256.164 473.221 286.057 480.287 316.494 487.896C317.038 487.896 317.581 488.44 318.125 488.44C400.74 508.55 484.442 527.03 549.664 537.357C480.093 553.662 397.479 565.62 300.732 566.163C276.817 566.163 253.99 567.25 231.705 569.424C289.318 653.67 384.434 709.652 493.138 714L492.594 712.913ZM520.857 712.913H521.401H520.857ZM521.401 712.913H521.944H521.401ZM521.944 712.913H522.488H521.944ZM522.488 712.913H523.031H522.488ZM523.031 712.913H523.575H523.031ZM523.575 712.913H524.118H523.575ZM524.118 712.913C640.431 706.935 740.982 641.169 795.878 546.053C740.982 641.169 640.431 706.935 524.118 712.913Z" fill="#F8BDBD"/>
<path d="M514.336 347.674V345.499C514.336 335.173 523.032 326.476 533.359 326.476C534.446 326.476 535.533 326.476 537.164 327.02C537.164 326.476 537.164 325.389 537.164 324.846C537.164 311.801 548.034 300.931 561.079 300.931C566.514 300.931 571.405 302.561 575.754 305.823C576.841 290.061 589.341 277.56 605.647 277.56C621.953 277.56 635.541 291.148 635.541 307.453V309.084C638.802 306.91 643.15 305.823 647.498 305.823C659.455 305.823 669.239 315.606 669.239 327.563C669.239 330.281 668.695 332.455 668.152 334.629C669.239 334.086 670.869 334.086 672.5 334.086C680.653 334.086 687.175 340.064 687.718 347.674H515.423H514.336Z" fill="#FFDCDC"/>
<path d="M436.061 203.644C436.061 202.557 436.061 201.47 436.061 200.383C436.061 184.621 449.105 171.576 464.867 171.576C466.498 171.576 468.672 171.576 470.302 172.12C470.302 171.033 470.302 169.946 470.302 168.859C470.302 148.205 486.608 131.9 507.261 131.9C515.958 131.9 523.567 134.617 529.546 139.509C530.633 115.594 550.743 96.0273 575.201 96.0273C600.747 96.0273 620.857 116.681 620.857 141.683C620.857 142.226 620.857 143.313 620.857 143.857C626.292 140.596 632.271 138.422 638.793 138.422C657.273 138.422 672.491 153.64 672.491 172.12C672.491 175.925 671.948 179.729 670.861 182.99C673.035 182.447 675.209 181.903 677.383 181.903C689.884 181.903 699.667 191.143 700.754 203.101H436.061V203.644Z" fill="#FFDCDC"/>
<path d="M254.524 293.332V291.701C254.524 283.005 261.59 275.939 270.286 275.939C271.373 275.939 272.461 275.939 273.548 276.483V274.852C273.548 263.438 282.787 254.199 294.201 254.199C299.093 254.199 302.898 255.829 306.702 258.547C307.246 244.959 318.66 234.632 331.704 234.632C345.836 234.632 357.249 246.046 357.249 260.177V261.264C359.967 259.634 363.772 258.547 367.576 258.547C377.903 258.547 386.056 266.699 386.056 277.026C386.056 279.2 385.512 281.374 384.969 283.005C386.056 282.461 387.143 282.461 388.23 282.461C394.752 282.461 400.731 287.897 401.274 294.419H255.068L254.524 293.332Z" fill="#FFDCDC"/>
<path d="M752.389 458.564C752.389 443.889 752.389 430.301 751.846 417.257C744.236 425.953 732.822 431.388 720.322 431.388C697.494 431.388 678.471 412.909 678.471 389.537C678.471 375.406 685.536 362.361 696.95 355.296C693.689 350.404 691.515 344.969 691.515 338.447C691.515 322.685 704.56 309.64 720.322 309.64H721.952C718.148 304.748 715.43 298.226 715.43 291.704C715.43 275.942 728.474 262.897 744.236 262.897C759.998 262.897 773.043 275.942 773.043 291.704C773.043 298.77 770.869 304.748 766.521 309.64C782.283 309.64 794.784 322.685 794.784 338.447C794.784 344.425 793.153 349.86 789.892 354.752C805.11 359.1 816.524 373.232 816.524 389.537C816.524 409.647 800.219 425.953 780.109 425.953C769.782 425.953 761.085 421.605 754.563 415.083C755.107 427.584 755.65 441.715 755.65 455.847C754.563 456.39 753.476 456.934 752.389 458.021V458.564Z" fill="#F8B5B6"/>
<path d="M506.171 712.938C506.171 712.938 506.171 712.938 505.627 712.938H506.171ZM505.627 712.938C505.627 712.938 505.627 712.938 506.171 712.938H505.627ZM505.084 712.938C505.084 712.938 505.084 712.938 505.627 712.938H505.084ZM505.084 712.938C505.084 712.938 505.084 712.938 505.627 712.938H505.084ZM504.54 712.938C504.54 712.938 504.54 712.938 505.084 712.938H504.54ZM503.997 712.938C503.997 712.938 503.997 712.938 504.54 712.938H503.997ZM503.453 712.938C503.453 712.938 503.453 712.938 503.997 712.938H503.453ZM502.91 712.938C502.91 712.938 502.91 712.938 503.453 712.938H502.91ZM502.366 712.938C502.366 712.938 502.366 712.938 502.91 712.938H502.366ZM502.366 712.938C502.366 712.938 502.366 712.938 501.823 712.938C501.823 712.938 501.823 712.938 502.366 712.938ZM501.823 712.938C501.823 712.938 501.823 712.938 502.366 712.938H501.823ZM501.279 712.938C501.279 712.938 501.279 712.938 501.823 712.938H501.279ZM500.736 712.938C500.736 712.938 500.736 712.938 500.192 712.938C500.192 712.938 500.192 712.938 500.736 712.938ZM500.192 712.938C500.192 712.938 500.192 712.938 500.736 712.938H500.192ZM499.105 712.938C499.105 712.938 499.105 712.938 498.562 712.938C498.562 712.938 498.562 712.938 499.105 712.938ZM637.159 546.078C615.418 546.078 584.437 542.817 548.565 536.838C640.42 515.097 707.816 484.66 751.298 459.658C752.385 459.115 753.472 458.571 754.559 457.484C768.69 449.332 780.104 441.722 788.8 435.2C812.172 417.808 827.934 408.024 837.717 401.502C834.456 453.68 819.237 502.596 794.236 545.534C782.278 545.534 769.234 545.534 755.102 545.534C721.404 545.534 681.184 545.534 638.246 546.078C637.702 546.078 637.702 546.078 637.159 546.078Z" fill="#FFDCDC"/>
<path d="M506.184 712.904H505.641C505.641 712.904 505.641 712.904 505.097 712.904C505.097 712.904 505.097 712.904 504.554 712.904C504.554 712.904 504.554 712.904 504.01 712.904C504.01 712.904 504.01 712.904 503.467 712.904C503.467 712.904 503.467 712.904 502.923 712.904C502.923 712.904 502.923 712.904 502.38 712.904C502.38 712.904 502.38 712.904 501.836 712.904C501.836 712.904 501.836 712.904 501.293 712.904C501.293 712.904 501.293 712.904 500.749 712.904C500.749 712.904 500.749 712.904 500.206 712.904C500.206 712.904 500.206 712.904 499.662 712.904C499.662 712.904 499.662 712.904 499.119 712.904C499.119 712.904 499.119 712.904 498.575 712.904C498.575 712.904 498.575 712.904 498.032 712.904C498.032 712.904 498.032 712.904 497.488 712.904H496.945C496.945 712.904 496.945 712.904 496.401 712.904C495.857 712.904 495.857 712.904 495.314 712.904C495.314 712.904 495.314 712.904 494.77 712.904C494.227 712.904 494.227 712.904 493.683 712.904C384.98 708.556 289.864 652.03 232.251 568.328C253.992 566.697 277.363 565.61 301.278 565.067C398.024 564.523 481.182 553.109 550.209 536.26C586.625 542.239 617.062 545.5 638.803 545.5C639.346 545.5 639.346 545.5 639.89 545.5C683.371 545.5 723.048 544.957 756.746 544.957C770.878 544.957 783.922 544.957 795.88 544.957C740.984 640.072 640.433 705.838 524.12 711.817H523.577H523.033H522.49H521.946H521.403H520.859C520.316 711.817 519.772 711.817 518.685 711.817H518.142H517.598H517.055H516.511H515.968H515.424H514.881H514.337H513.794H513.25H512.707H512.163H511.62H511.076H510.532C510.532 711.817 510.532 711.817 509.989 711.817H509.445H508.902C508.902 711.817 508.902 711.817 508.358 711.817H507.815C507.815 711.817 507.815 711.817 507.271 711.817H506.728C506.728 711.817 506.728 711.817 506.184 711.817H505.641L506.184 712.904Z" fill="#FFDCDC"/>
<g clip-path="url(#clip0)">
<path fill-rule="evenodd" clip-rule="evenodd" d="M345.3 781.64L336.58 810.31L301.72 811.57L299.39 768.46L345.3 781.64Z" fill="#F77F89"/>
<path fill-rule="evenodd" clip-rule="evenodd" d="M300.189 806.61V844.28L394.449 846.41C394.449 846.41 391.769 819.49 343.569 819.05C343.749 807.22 343.769 806.61 343.769 806.61H300.189Z" fill="#6367FD"/>
<path fill-rule="evenodd" clip-rule="evenodd" d="M257.2 787.06L257.85 815.29L294.25 816.56L303.71 785.14L257.2 787.06Z" fill="#F77F89"/>
<path fill-rule="evenodd" clip-rule="evenodd" d="M312.25 117C351.86 117 360.06 154.63 360.08 168.45C360.08 181.62 357.51 183.63 357.6 196.98C357.66 207.12 360.6 214.22 360.33 219.98C358.77 249.98 318.21 258.63 306.63 258.8C295.05 258.97 244.63 249.21 244.63 225.89C244.63 209.62 254.98 183.6 254.7 165.53C254.08 128 285.46 117 312.25 117Z" fill="black"/>
<path fill-rule="evenodd" clip-rule="evenodd" d="M257 810.28L257.54 847.98L350.07 850.07C350.07 850.07 350.07 822.58 299.39 822.07V810.28H257Z" fill="#6367FD"/>
<path fill-rule="evenodd" clip-rule="evenodd" d="M247.92 527.5L248.16 791.23L314.28 789.79L315.28 777.58L357.92 783.33L384.98 508.33L370.37 437.91L273.8 435.27L247.92 527.5Z" fill="#3B4161"/>
<path fill-rule="evenodd" clip-rule="evenodd" d="M325.819 639.56L365.469 706.19L357.939 782.63L315.229 777.63L325.819 639.56Z" fill="#15192C"/>
<path fill-rule="evenodd" clip-rule="evenodd" d="M298 459H368.24L377.75 355.23L365.06 275.71L341.06 252.6L317 241.86L273.55 248.5L298 459Z" fill="#F7D167"/>
<path d="M270.38 790.75L270.84 510.22" stroke="#737999" stroke-width="1.7" stroke-linecap="round" stroke-linejoin="round"/>
<path fill-rule="evenodd" clip-rule="evenodd" d="M285.93 240.58C269.51 241.03 220.48 258.83 213.32 276.89C207.88 290.59 204.15 414.55 216.93 420.6C217.75 420.997 218.607 421.311 219.49 421.54C218.72 425.34 211.36 513.33 213.23 520.65C215.1 527.97 220.01 539.05 227.12 538.65C254.63 537 305.17 500.89 310.19 495C310.96 483.84 313.09 441.92 313.09 441.92L308.71 317.54L283.64 249C283.64 249 302.35 240.13 285.93 240.58Z" fill="white"/>
<path fill-rule="evenodd" clip-rule="evenodd" d="M321.71 239.8C349.94 243.31 389.79 265.2 394.92 275.17C399.24 283.55 397.05 392.04 397.05 392.04C397.05 392.04 381.05 413.99 388.26 445.56C394.88 474.68 396.84 513.99 389.9 521.34C378.46 515.55 363.75 492.34 361.1 486.62C358.45 480.9 357.76 448.54 355.72 441.62C353.68 434.7 344.55 312.19 344.55 312.19C344.55 312.19 340.29 262.7 321.71 239.8Z" fill="white"/>
<path d="M250.64 250.22C264.85 276.13 293.64 305.66 308.48 316.93" stroke="#C9C9C9" stroke-width="2" stroke-linecap="round" stroke-linejoin="round"/>
<path d="M336 242.77C348.65 259.83 351.91 288.82 342 318.26" stroke="#C9C9C9" stroke-width="2" stroke-linecap="round" stroke-linejoin="round"/>
<path d="M265 322.6C265 320.372 265.661 318.195 266.898 316.343C268.136 314.491 269.895 313.048 271.953 312.196C274.011 311.344 276.276 311.122 278.46 311.557C280.645 311.992 282.651 313.066 284.226 314.641C285.8 316.217 286.872 318.224 287.305 320.409C287.738 322.594 287.514 324.858 286.66 326.916C285.806 328.973 284.361 330.731 282.508 331.967C280.655 333.203 278.477 333.862 276.25 333.86C273.265 333.857 270.404 332.67 268.294 330.558C266.185 328.447 265 325.584 265 322.6V322.6Z" stroke="#353823" stroke-width="3.41" stroke-linecap="round" stroke-linejoin="round"/>
<path fill-rule="evenodd" clip-rule="evenodd" d="M270.479 322.6C270.479 321.463 270.817 320.351 271.449 319.406C272.08 318.46 272.978 317.723 274.029 317.288C275.08 316.853 276.236 316.739 277.351 316.961C278.467 317.182 279.491 317.73 280.295 318.534C281.1 319.338 281.647 320.363 281.869 321.478C282.091 322.594 281.977 323.75 281.542 324.801C281.107 325.851 280.37 326.749 279.424 327.381C278.478 328.013 277.367 328.35 276.229 328.35C274.705 328.35 273.242 327.744 272.164 326.666C271.085 325.588 270.479 324.125 270.479 322.6V322.6Z" fill="#353823"/>
<path d="M273.21 311.75C265.61 283.84 265.12 245 284.74 238" stroke="#353823" stroke-width="3.41" stroke-linecap="round" stroke-linejoin="round"/>
<path d="M319 233.25C330.19 237.99 340.85 259.85 343.35 278.57" stroke="#353823" stroke-width="3.41" stroke-linecap="round" stroke-linejoin="round"/>
<path d="M331.27 313.73C327.69 296.43 333.09 280.73 343.33 278.57C353.57 276.41 364.78 288.75 368.33 306.05C371.88 323.35 366.51 339.05 356.27 341.2C346.03 343.35 334.85 331 331.27 313.73Z" stroke="#353823" stroke-width="3.41" stroke-linecap="round" stroke-linejoin="round"/>
<path d="M261.63 286.52L257.31 370.63" stroke="#C9C9C9" stroke-width="2" stroke-linecap="round" stroke-linejoin="round"/>
<path d="M249.47 289L260.7 304.66" stroke="#C9C9C9" stroke-width="2" stroke-linecap="round" stroke-linejoin="round"/>
<path fill-rule="evenodd" clip-rule="evenodd" d="M286.999 363.94L243.819 374.27Z" fill="#606060"/>
<path d="M286.999 363.94L243.819 374.27" stroke="#C9C9C9" stroke-width="2" stroke-linecap="round" stroke-linejoin="round"/>
<path d="M246 362.72L257 371.12" stroke="#C9C9C9" stroke-width="2" stroke-linecap="round" stroke-linejoin="round"/>
<path d="M288.64 412.65C270.48 419.96 227.34 428.7 219.19 421.46C208.29 411.77 205.19 311.76 210.66 285.23C213.85 269.79 229.96 259.85 238.36 255.85" stroke="#C9C9C9" stroke-width="2" stroke-linecap="round" stroke-linejoin="round"/>
<path d="M275.66 416.93C270.48 410.36 268.5 377.6 271 367.77" stroke="#C9C9C9" stroke-width="2" stroke-linecap="round" stroke-linejoin="round"/>
<path fill-rule="evenodd" clip-rule="evenodd" d="M276.23 374.17C276.228 373.647 276.381 373.136 276.67 372.701C276.958 372.265 277.37 371.925 277.852 371.724C278.334 371.523 278.866 371.469 279.378 371.57C279.891 371.67 280.362 371.921 280.733 372.29C281.103 372.659 281.355 373.129 281.458 373.641C281.561 374.154 281.509 374.685 281.309 375.168C281.11 375.651 280.772 376.064 280.337 376.354C279.903 376.645 279.392 376.8 278.87 376.8C278.523 376.801 278.18 376.734 277.86 376.603C277.54 376.471 277.249 376.278 277.003 376.033C276.758 375.789 276.563 375.499 276.431 375.179C276.298 374.859 276.23 374.516 276.23 374.17V374.17Z" fill="#C9C9C9"/>
<path d="M271.419 454.47C265.677 456.687 259.575 457.823 253.419 457.82C248.852 457.776 244.313 457.103 239.929 455.82C239.6 457.088 239.422 458.39 239.399 459.7V480.59C239.399 484.966 241.138 489.163 244.232 492.257C247.327 495.352 251.523 497.09 255.899 497.09C260.275 497.09 264.472 495.352 267.567 492.257C270.661 489.163 272.399 484.966 272.399 480.59V459.68C272.357 457.902 272.026 456.142 271.419 454.47Z" stroke="#C9C9C9" stroke-width="2" stroke-linecap="round" stroke-linejoin="round"/>
<path fill-rule="evenodd" clip-rule="evenodd" d="M335.42 307.52H421.65C426.88 307.52 430 311.61 428.65 316.65L395.36 439.11C394.548 441.685 392.958 443.945 390.809 445.58C388.661 447.215 386.058 448.144 383.36 448.24H297.18C291.96 448.24 288.83 444.15 290.18 439.11L323.46 316.65C324.269 314.081 325.852 311.824 327.993 310.19C330.134 308.555 332.728 307.623 335.42 307.52V307.52Z" fill="#6367FD"/>
<path fill-rule="evenodd" clip-rule="evenodd" d="M359.22 301.22H408.16C408.703 301.175 409.249 301.268 409.747 301.491C410.245 301.713 410.678 302.058 411.006 302.493C411.335 302.929 411.548 303.44 411.625 303.98C411.703 304.519 411.642 305.07 411.45 305.58L409.07 313.9C408.667 315.13 407.897 316.207 406.863 316.986C405.83 317.766 404.583 318.21 403.29 318.26H354.35C353.807 318.303 353.263 318.208 352.766 317.984C352.27 317.761 351.838 317.416 351.51 316.982C351.182 316.547 350.969 316.037 350.89 315.499C350.812 314.96 350.87 314.41 351.06 313.9L353.44 305.58C353.846 304.352 354.616 303.276 355.649 302.497C356.682 301.718 357.927 301.273 359.22 301.22Z" fill="#3B4161"/>
<path fill-rule="evenodd" clip-rule="evenodd" d="M286.75 369.94C290.563 367.735 294.611 365.967 298.82 364.67C304.89 359.67 309.35 339.92 310.96 338.67C312.57 337.42 317.96 338.23 318.12 340.1C318.82 346.95 318.45 354.95 312.38 362.1C330.04 350.87 331.38 345.89 336.24 349.65C341.1 353.41 342.85 371.75 338.68 379.33C327.2 400.25 297 403.08 287.76 403.22C285.46 393.27 285.46 381.24 286.75 369.94Z" fill="#F77F89"/>
<path d="M248.149 770.65L316.429 768.46" stroke="#737999" stroke-width="1.7" stroke-linecap="round" stroke-linejoin="round"/>
<path d="M336.17 503.65L315.31 777.59" stroke="#737999" stroke-width="1.7" stroke-linecap="round" stroke-linejoin="round"/>
<path d="M317 755.58L360.12 760.64" stroke="#737999" stroke-width="1.7" stroke-linecap="round" stroke-linejoin="round"/>
<path d="M371.59 644.42C368.951 644.685 366.286 644.361 363.787 643.471C361.288 642.582 359.018 641.149 357.14 639.276C355.262 637.403 353.822 635.137 352.926 632.641C352.029 630.145 351.697 627.481 351.955 624.841C352.212 622.201 353.051 619.651 354.413 617.375C355.775 615.099 357.624 613.153 359.829 611.678C362.033 610.203 364.537 609.235 367.161 608.845C369.784 608.454 372.461 608.651 375 609.42" stroke="#737999" stroke-width="1.7" stroke-linecap="round" stroke-linejoin="round"/>
<path d="M324.65 656.69C319.503 656.406 314.671 654.126 311.18 650.334C307.689 646.542 305.815 641.537 305.957 636.385C306.099 631.232 308.245 626.339 311.94 622.745C315.635 619.151 320.586 617.14 325.74 617.14C326.407 617.14 327.037 617.17 327.63 617.23" stroke="#737999" stroke-width="1.7" stroke-linecap="round" stroke-linejoin="round"/>
<path d="M339.349 355.09L323.899 367.46" stroke="#A7464F" stroke-width="3.41" stroke-linecap="round" stroke-linejoin="round"/>
<path d="M341 367.89L321.38 383.49" stroke="#A7464F" stroke-width="3.41" stroke-linecap="round" stroke-linejoin="round"/>
<path fill-rule="evenodd" clip-rule="evenodd" d="M427.16 367.3C426.92 363.18 428.16 354.03 431.82 345.3C433.16 342.14 433.24 336.94 428.53 336.94C423.17 336.94 416 347.7 419.53 360.51C423.06 373.32 427.51 373.12 427.16 367.3Z" fill="#F77F89"/>
<path fill-rule="evenodd" clip-rule="evenodd" d="M410.559 343.09C414.819 343.09 427.769 368.71 427.679 371.82C427.589 374.93 426.239 379.66 424.229 379.42C422.219 379.18 405.399 357.77 405.399 350.5C405.399 346.29 407.449 343.09 410.559 343.09Z" fill="#F77F89"/>
<path fill-rule="evenodd" clip-rule="evenodd" d="M405 357.81C410.31 357.81 424.31 378.23 424.41 380.57C424.51 382.91 421.68 385.06 419.34 385.16C417 385.26 400.27 371.54 400.27 365.16C400.24 361.26 402 357.81 405 357.81Z" fill="#F77F89"/>
<path fill-rule="evenodd" clip-rule="evenodd" d="M409.899 396C412.199 395.89 418.599 390.17 418.599 385.67C418.599 383.9 414.129 379.32 411.889 379.46C409.649 379.6 405.079 388.21 405.169 390.4C405.259 392.59 406.889 396.11 409.899 396Z" fill="#F77F89"/>
<path d="M418.6 352.56C423.19 360.2 427.73 369.98 427.68 371.82" stroke="#A7464F" stroke-width="3.41" stroke-linecap="round" stroke-linejoin="round"/>
<path d="M408.21 359.31C414.53 364.07 424.3 378.62 424.38 380.57" stroke="#A94B53" stroke-width="3.41" stroke-linecap="round" stroke-linejoin="round"/>
<path fill-rule="evenodd" clip-rule="evenodd" d="M270.06 175.49C270.06 152.6 288.37 134 311 134C333.63 134 351.9 152.56 351.9 175.45C351.9 198.34 333.55 216.94 311 216.94C288.45 216.94 270.06 198.39 270.06 175.49Z" fill="#F77F89"/>
<path fill-rule="evenodd" clip-rule="evenodd" d="M304.94 178.48C305.38 175.84 306.94 173.89 308.5 174.15C310.06 174.41 310.92 176.75 310.5 179.39C310.08 182.03 308.5 183.98 306.94 183.73C305.38 183.48 304.51 181.13 304.94 178.48Z" fill="#B5545C"/>
<path fill-rule="evenodd" clip-rule="evenodd" d="M335.749 180.46C336.159 177.99 337.639 176.17 339.069 176.41C340.499 176.65 341.329 178.84 340.929 181.31C340.529 183.78 339.029 185.59 337.599 185.31C336.169 185.03 335.339 182.93 335.749 180.46Z" fill="#B5545C"/>
<path fill-rule="evenodd" clip-rule="evenodd" d="M276.31 193.74C278.74 200.5 284.85 235.63 283.31 248.39C289.71 258.09 318.23 255.39 326.73 247.18C322.5 235.37 322.34 226.9 323.89 216.94C325.36 207.62 273.88 187 276.31 193.74Z" fill="#F77F89"/>
<path fill-rule="evenodd" clip-rule="evenodd" d="M327.189 133C327.539 142.85 318.549 152.26 294.109 156.93C296.789 163.84 297.009 174.23 283.659 176.1C268.089 178.26 266.819 158.37 266.819 158.37L290.139 130.82C290.139 130.82 326.849 123.13 327.189 133Z" fill="black"/>
<path fill-rule="evenodd" clip-rule="evenodd" d="M319.85 126.07C318.85 134.82 328.92 156.07 352.24 156.65C368.82 156.65 320.82 117.31 319.85 126.07Z" fill="black"/>
<path fill-rule="evenodd" clip-rule="evenodd" d="M292.8 215.47C290.56 212.64 293.8 199.74 297.33 193.83C301.59 191.32 316.7 193.41 324.49 186.71C326.78 184.71 328.01 186.19 329.79 188.38C332.92 192.22 342.33 194.21 345.85 196.38C346.37 201.98 341.23 214.8 339.01 217.67C335.53 222.22 303.72 222.63 292.8 215.47Z" fill="white"/>
<path d="M299.39 195C297.33 191.56 288.33 176.17 285.46 172.27" stroke="white" stroke-width="3.41" stroke-linecap="round" stroke-linejoin="round"/>
<path d="M294.57 214.65C288.48 214.65 274 195.6 272.35 189.21" stroke="white" stroke-width="3.41" stroke-linecap="round" stroke-linejoin="round"/>
<path fill-rule="evenodd" clip-rule="evenodd" d="M263.06 178.89C263.06 176.254 263.841 173.676 265.306 171.484C266.771 169.292 268.853 167.584 271.288 166.575C273.724 165.566 276.404 165.302 278.99 165.816C281.576 166.331 283.951 167.6 285.815 169.464C287.68 171.329 288.949 173.704 289.463 176.29C289.978 178.875 289.714 181.555 288.705 183.991C287.696 186.427 285.987 188.509 283.795 189.974C281.603 191.438 279.026 192.22 276.39 192.22C272.854 192.22 269.464 190.816 266.964 188.316C264.464 185.816 263.06 182.425 263.06 178.89V178.89Z" fill="#F77F89"/>
<path d="M347.29 841.16L257.43 840.54" stroke="#4C4FD9" stroke-width="1.7" stroke-linecap="round" stroke-linejoin="round"/>
<path d="M349.21 845.57C346.74 837.76 337.08 822.46 299.39 822.09V818.3" stroke="#4C4FD9" stroke-width="1.7" stroke-linecap="round" stroke-linejoin="round"/>
<path d="M257.43 830.18C259.662 830.18 261.873 830.62 263.935 831.474C265.998 832.329 267.872 833.581 269.451 835.159C271.029 836.738 272.281 838.612 273.136 840.675C273.99 842.737 274.43 844.948 274.43 847.18C274.43 847.63 274.43 848.07 274.43 848.51" stroke="#4C4FD9" stroke-width="1.7" stroke-linecap="round" stroke-linejoin="round"/>
<path d="M309.35 830.72L313.76 823.08" stroke="#4C4FD9" stroke-width="1.7" stroke-linecap="round" stroke-linejoin="round"/>
<path d="M319.729 832.52L323.489 825.02" stroke="#4C4FD9" stroke-width="1.7" stroke-linecap="round" stroke-linejoin="round"/>
<path d="M329.55 834.49L332.82 828.42" stroke="#4C4FD9" stroke-width="1.7" stroke-linecap="round" stroke-linejoin="round"/>
<path d="M311.689 468.64L358.389 467.18" stroke="#737999" stroke-width="1.7" stroke-linecap="round" stroke-linejoin="round"/>
<path d="M257.069 815.13L299.389 814.44" stroke="#4C4FD9" stroke-width="1.7" stroke-linecap="round" stroke-linejoin="round"/>
<path d="M300.189 811L343.709 810.65" stroke="#4C4FD9" stroke-width="1.7" stroke-linecap="round" stroke-linejoin="round"/>
<path d="M392.19 839.82L345.77 838.82" stroke="#4C4FD9" stroke-width="1.7" stroke-linecap="round" stroke-linejoin="round"/>
<path d="M357.67 820.06L353.67 827.17" stroke="#4C4FD9" stroke-width="1.7" stroke-linecap="round" stroke-linejoin="round"/>
<path d="M364.34 821.65L360.34 828.77" stroke="#4C4FD9" stroke-width="1.7" stroke-linecap="round" stroke-linejoin="round"/>
<path d="M371.46 823.61L367.46 830.73" stroke="#4C4FD9" stroke-width="1.7" stroke-linecap="round" stroke-linejoin="round"/>
<path d="M239.49 536.2C224.49 542.48 213.23 531.29 213.14 520.2C213.05 509.11 217.44 442.94 218.04 436.34" stroke="#C9C9C9" stroke-width="2" stroke-linecap="round" stroke-linejoin="round"/>
<path d="M396.82 291C397.6 268.36 373.76 258 363.95 253.56" stroke="#C9C9C9" stroke-width="2" stroke-linecap="round" stroke-linejoin="round"/>
<path d="M392.16 517C394.03 504.93 394.16 472.27 391 459.81" stroke="#C9C9C9" stroke-width="2" stroke-linecap="round" stroke-linejoin="round"/>
</g>
<g clip-path="url(#clip1)">
<path fill-rule="evenodd" clip-rule="evenodd" d="M588.92 773L583.16 802.3L616.06 817.66L629.89 787.32L588.92 773Z" fill="black"/>
<path fill-rule="evenodd" clip-rule="evenodd" d="M602.35 849.8L619.35 810.54C619.35 810.54 600.13 801.73 584.58 795.34C560.23 798.97 523.38 796.88 511.18 794.34C507.85 802.6 506 808.23 506 808.23L602.35 849.8Z" fill="black"/>
<path fill-rule="evenodd" clip-rule="evenodd" d="M827.84 776.19L842 789.29L872.6 766.79L861.8 752.51L827.84 776.19Z" fill="black"/>
<path fill-rule="evenodd" clip-rule="evenodd" d="M869.9 763.19L895.63 796.93L840.42 840.26H785.86L785.98 825.94C785.98 825.94 824.66 818.94 824.54 819.05C832.54 809.52 839.04 786.53 839.04 786.53L869.9 763.19Z" fill="black"/>
<path fill-rule="evenodd" clip-rule="evenodd" d="M774.45 464.14C774.45 464.14 792.39 596.62 798.75 610.89C805.11 625.16 866.67 753.42 866.67 753.42L822.18 785.33C822.18 785.33 723.13 636 718.64 628C715.74 622.88 708.01 592.39 708.01 592.39L631.73 800.1L581.18 777L634.25 469.48L774.45 464.14Z" fill="#AADAF1"/>
<path fill-rule="evenodd" clip-rule="evenodd" d="M720.72 466.2L681 467.71L681.29 477.29L720.72 466.2ZM682 502.49L686.55 650.81L708 592.56L682 502.49Z" fill="#73A9C3"/>
<path d="M708.05 592.56L678.26 488.72" stroke="#0097F7" stroke-width="1.7" stroke-linecap="round" stroke-linejoin="round"/>
<path d="M822.12 714.63L780.66 637.93C788.76 629.74 792.15 620.99 773.58 631.37C759.81 639.06 757.51 636.45 769.58 623.14C785.83 605.26 783 602.81 767.02 605.39" stroke="#0097F7" stroke-width="1.7" stroke-linecap="round" stroke-linejoin="round"/>
<path d="M770.36 599C770.36 599 757 505.32 753.14 493.79" stroke="#0097F7" stroke-width="1.7" stroke-linecap="round" stroke-linejoin="round"/>
<path d="M632.26 708.44C633.73 702.15 641.69 646.14 646.64 644.76C670.16 638.22 674.41 629.07 651.94 622.66C629.94 616.37 630.02 614.48 649.86 608.44C670.16 602.25 666.16 598.97 653.11 587.32C648.69 583.37 668.97 534.01 670.11 529.2" stroke="#0097F7" stroke-width="1.7" stroke-linecap="round" stroke-linejoin="round"/>
<path fill-rule="evenodd" clip-rule="evenodd" d="M809.11 369C808.98 361.29 810.64 347.55 807.2 339.29C803.76 331.03 781.05 334.59 781.05 334.59C781.05 334.59 809.23 376.67 809.11 369Z" fill="#F77F89"/>
<path fill-rule="evenodd" clip-rule="evenodd" d="M715.47 236.15C767.09 236.15 809.21 262.3 809.62 301.93C809.87 326.8 814.45 344.69 814.45 344.69L768.68 356.07C768.68 356.07 784.58 465.24 779 469.83C762.4 483.51 645.94 488.09 631.49 473.2C630.22 454.78 641.42 405.7 641.42 405.7C641.42 405.7 605.88 321.92 625.14 282.41C643.39 244.96 691.37 238.23 712.64 237.5C713.81 237.46 714.47 236.15 715.47 236.15Z" fill="#0097F7"/>
<path fill-rule="evenodd" clip-rule="evenodd" d="M746.06 168C746.36 150.31 728.29 126 702.27 126C681.88 126 661.05 135.7 660.52 151.48C659.46 144.96 658.45 140.93 659.19 137.33C654.79 137.11 645.94 148.46 645.94 163.62C645.94 169.48 650.51 191.62 663.51 191.35C676.51 191.08 726.12 208.84 726.12 208.84C726.12 208.84 729.38 213.61 733.78 213.25C738.18 212.89 746.51 204.64 746.58 200.09C746.65 195.54 742.53 187.36 742.58 184.83C742.63 182.3 745.75 185.66 746.06 168Z" fill="#6A3416"/>
<path d="M683.84 287.64L674.67 321" stroke="black" stroke-width="3.41" stroke-linecap="round" stroke-linejoin="round"/>
<path fill-rule="evenodd" clip-rule="evenodd" d="M657.92 190.71C657.918 183.055 660.186 175.571 664.438 169.206C668.69 162.84 674.734 157.878 681.805 154.948C688.877 152.017 696.659 151.25 704.167 152.743C711.675 154.236 718.572 157.922 723.985 163.335C729.398 168.748 733.084 175.644 734.577 183.152C736.07 190.66 735.302 198.443 732.372 205.514C729.442 212.586 724.48 218.63 718.114 222.882C711.749 227.134 704.265 229.402 696.61 229.4C686.349 229.4 676.508 225.324 669.252 218.068C661.996 210.812 657.92 200.971 657.92 190.71V190.71Z" fill="#F77F89"/>
<path fill-rule="evenodd" clip-rule="evenodd" d="M656.06 176C656.06 176 661.26 175 668.91 163.68C678.45 165.48 694.15 165.4 707.53 161.36C707.7 169.43 713.62 182.64 721.77 181.18C729.92 179.72 733.26 160.08 733.26 160.08L714.05 140L685 140.19L664.55 154.6L656.06 176Z" fill="#6A3416"/>
<path fill-rule="evenodd" clip-rule="evenodd" d="M667.61 186.11C667.25 183.02 668.22 180.38 669.77 180.2C671.32 180.02 672.88 182.37 673.24 185.45C673.6 188.53 672.63 191.18 671.07 191.36C669.51 191.54 668 189.19 667.61 186.11Z" fill="#90415B"/>
<path fill-rule="evenodd" clip-rule="evenodd" d="M735.68 198.76C734.68 204.91 732.68 234.16 735.85 240.38C728.78 247.5 708.05 250.57 697.19 247.48C698.04 239.04 694.54 230.79 692.67 227.42C690.8 224.05 736.65 192.6 735.68 198.76Z" fill="#F77F89"/>
<path fill-rule="evenodd" clip-rule="evenodd" d="M693.45 181.36C693.09 178.28 694.06 175.64 695.61 175.45C697.16 175.26 698.72 177.62 699.07 180.71C699.42 183.8 698.47 186.44 696.91 186.62C695.35 186.8 693.81 184.45 693.45 181.36Z" fill="#90415B"/>
<path d="M680.57 187.14C680.88 190.78 677.96 204.54 677.34 206.67C676.72 208.8 680.05 209.59 680.05 209.59" stroke="#90415B" stroke-width="1.7" stroke-linecap="round" stroke-linejoin="round"/>
<path fill-rule="evenodd" clip-rule="evenodd" d="M659.86 202.84C660.06 206.71 669.2 226.67 674.59 229.74C679.98 232.81 720.59 232.41 729.92 212.31C722.26 211.12 717.07 204.62 711.01 190.71C697.47 192.71 682.12 190.71 679.65 190.84C676.94 191 670.42 200 659.86 202.84Z" fill="white"/>
<path fill-rule="evenodd" clip-rule="evenodd" d="M740.93 276.56C762.17 276.15 804.29 273.56 808.52 291.56C812.75 309.56 816.77 340.43 814.45 344.66C812.13 348.89 768.88 354.25 768.88 354.25C765.46 345.59 746.58 296.76 740.93 276.56Z" fill="#0097F7"/>
<path fill-rule="evenodd" clip-rule="evenodd" d="M786.26 395.89C774.56 397.79 705.51 349.68 696.95 350.62C688.39 351.56 666.42 350.72 666.42 350.72C666.42 350.72 653.92 302.81 680.59 301.04C682.24 300.93 692.01 309.62 692.01 309.62C692.01 309.62 694.72 308.76 696.61 310.31C700.06 313.13 711.28 325.88 716.89 327.9C726.33 331.31 802.94 345.8 806.61 351.9C810.28 358 814.33 391.34 786.26 395.89Z" fill="#F77F89"/>
<path fill-rule="evenodd" clip-rule="evenodd" d="M602.8 322H656.35C662.53 322 669.55 326.58 672.04 332.24L709.73 417.85C712.22 423.5 709.23 428.08 703.05 428.08H649.51C643.33 428.08 636.3 423.5 633.81 417.85L596.13 332.23C593.64 326.57 596.63 322 602.8 322Z" fill="#F7D167"/>
<path fill-rule="evenodd" clip-rule="evenodd" d="M601.49 391.56C598.94 384.98 597.12 375.89 600.7 370.07C604.28 364.25 618.06 346.33 623.77 346C629.48 345.67 644.14 361.56 645.71 366.71C647.28 371.86 646.71 383.05 644.25 387.87C641.79 392.69 631.92 402.05 626.95 402.24C621.98 402.43 603 395.58 601.49 391.56Z" fill="#F77F89"/>
<path fill-rule="evenodd" clip-rule="evenodd" d="M600.08 378.41C599.39 367.79 594.76 356.29 591.62 348.49C589.52 343.3 591.07 338.85 594.62 337.84C598.17 336.83 609.18 351.35 609.5 362.58C609.82 373.81 600.78 389 600.08 378.41Z" fill="#F77F89"/>
<path d="M599.42 373C601.965 367.377 605.362 362.179 609.49 357.59" stroke="#81666F" stroke-width="1.7" stroke-linecap="round" stroke-linejoin="round"/>
<path d="M613.62 374.72C613.62 369.01 625.26 352.36 629.62 350.32" stroke="#905F6F" stroke-width="1.7" stroke-linecap="round" stroke-linejoin="round"/>
<path d="M625.05 381.44C625.18 378.67 634.24 363.58 639.43 360.58" stroke="#8B5D6C" stroke-width="1.7" stroke-linecap="round" stroke-linejoin="round"/>
<path d="M646.33 292.86C645.33 298.72 644.39 311.25 646.81 321.97" stroke="#AADAF1" stroke-width="1.7" stroke-linecap="round" stroke-linejoin="round"/>
<path d="M713.69 317.2L747.44 317.88" stroke="#AADAF1" stroke-width="1.7" stroke-linecap="round" stroke-linejoin="round"/>
<path fill-rule="evenodd" clip-rule="evenodd" d="M694.68 239.22C694.19 244.16 688.33 276.1 708.05 276.1C720.74 276.1 740.44 246.58 737.32 237.78" fill="#F77F89"/>
<path d="M694.68 239.22C694.19 244.16 688.33 276.1 708.05 276.1C720.74 276.1 740.44 246.58 737.32 237.78" stroke="#AADAF1" stroke-width="1.7" stroke-linecap="round" stroke-linejoin="round"/>
<path fill-rule="evenodd" clip-rule="evenodd" d="M716.89 186.35C716.888 183.434 717.75 180.584 719.369 178.158C720.987 175.733 723.289 173.842 725.982 172.725C728.675 171.608 731.639 171.314 734.499 171.882C737.359 172.45 739.986 173.853 742.049 175.914C744.111 177.975 745.516 180.601 746.086 183.461C746.655 186.32 746.364 189.285 745.249 191.979C744.133 194.673 742.244 196.975 739.82 198.595C737.396 200.215 734.545 201.08 731.63 201.08C727.722 201.08 723.974 199.529 721.21 196.766C718.446 194.004 716.892 190.258 716.89 186.35V186.35Z" fill="#F77F89"/>
<path d="M711.16 191C711.16 191 720.47 174 730.33 171.67" stroke="white" stroke-width="1.7" stroke-linecap="round" stroke-linejoin="round"/>
<path d="M729.86 212.43L737.08 200" stroke="white" stroke-width="1.7" stroke-linecap="round" stroke-linejoin="round"/>
<path d="M763 339.12C757.35 324.31 749.24 302.57 744.12 286.99" stroke="#AADAF1" stroke-width="1.7" stroke-linecap="round" stroke-linejoin="round"/>
<path d="M661 206.93C663.64 214.14 670.31 227.3 674.6 229.74C676.31 230.74 681.6 231.34 688.34 231.09" stroke="#C9C9C9" stroke-width="3.41" stroke-linecap="round" stroke-linejoin="round"/>
<path d="M605.52 842.45L508.65 800.81" stroke="#7C7C7C" stroke-width="1.7" stroke-linecap="round" stroke-linejoin="round"/>
<path d="M785.91 834.09L837.66 832.3L890.73 790.5" stroke="#7C7C7C" stroke-width="1.7" stroke-linecap="round" stroke-linejoin="round"/>
</g>
<defs>
<clipPath id="clip0">
<rect width="225.62" height="733.07" fill="white" transform="translate(207 117)"/>
</clipPath>
<clipPath id="clip1">
<rect width="389.63" height="723.8" fill="white" transform="translate(506 126)"/>
</clipPath>
</defs>
</svg>
