<svg width="258" height="56" viewBox="0 0 258 56" fill="none" xmlns="http://www.w3.org/2000/svg">
<path d="M93.4775 12.465L82.3625 45H73.835L62.765 12.465H70.0325L78.0875 36.045L86.1875 12.465H93.4775ZM101.606 45.45C100.136 45.45 98.801 45.1725 97.601 44.6175C96.401 44.0475 95.441 43.2225 94.721 42.1425C94.016 41.0625 93.6635 39.7425 93.6635 38.1825C93.6635 35.6475 94.6385 33.6975 96.5885 32.3325C98.5535 30.9675 101.621 30.2775 105.791 30.2625L108.153 30.24V29.0475C108.153 27.2025 107.081 26.295 104.936 26.325C104.156 26.355 103.368 26.55 102.573 26.91C101.793 27.255 101.231 27.8925 100.886 28.8225H94.6085C94.6985 27.0675 95.216 25.635 96.161 24.525C97.121 23.415 98.3885 22.5975 99.9635 22.0725C101.553 21.5475 103.331 21.285 105.296 21.285C107.831 21.285 109.841 21.585 111.326 22.185C112.811 22.785 113.876 23.6325 114.521 24.7275C115.166 25.8225 115.488 27.105 115.488 28.575V45H109.121L108.468 41.1525C107.718 42.7875 106.788 43.9125 105.678 44.5275C104.568 45.1425 103.211 45.45 101.606 45.45ZM104.261 40.5225C105.281 40.5225 106.173 40.185 106.938 39.51C107.718 38.835 108.123 38.055 108.153 37.17V33.9975L106.263 34.02C105.483 34.02 104.673 34.125 103.833 34.335C103.008 34.545 102.311 34.8975 101.741 35.3925C101.171 35.8725 100.886 36.54 100.886 37.395C100.886 38.385 101.216 39.1575 101.876 39.7125C102.551 40.2525 103.346 40.5225 104.261 40.5225ZM144.609 45H137.094L131.244 35.7075L128.859 38.34V45H121.209V11.565H128.859V30.465L136.329 21.735H144.429L135.969 31.185L144.609 45ZM156.755 45.45C155.135 45.45 153.552 45.18 152.007 44.64C150.462 44.1 149.142 43.2375 148.047 42.0525C146.952 40.8675 146.247 39.3225 145.932 37.4175H152.502C152.697 38.2125 153.042 38.82 153.537 39.24C154.047 39.645 154.595 39.93 155.18 40.095C155.765 40.245 156.275 40.32 156.71 40.32C157.82 40.32 158.72 40.1625 159.41 39.8475C160.1 39.5325 160.445 39.0525 160.445 38.4075C160.445 37.8825 160.227 37.4625 159.792 37.1475C159.372 36.8325 158.637 36.585 157.587 36.405L153.807 35.7075C151.662 35.3025 149.937 34.56 148.632 33.48C147.327 32.385 146.667 30.84 146.652 28.845C146.637 27.42 147.02 26.1375 147.8 24.9975C148.58 23.8575 149.727 22.9575 151.242 22.2975C152.757 21.6225 154.617 21.285 156.822 21.285C159.837 21.285 162.237 21.9525 164.022 23.2875C165.807 24.6075 166.707 26.4225 166.722 28.7325H160.422C160.257 27.9375 159.837 27.3375 159.162 26.9325C158.487 26.5125 157.67 26.3025 156.71 26.3025C155.75 26.3025 154.94 26.4675 154.28 26.7975C153.635 27.1125 153.312 27.5925 153.312 28.2375C153.312 28.7325 153.597 29.1375 154.167 29.4525C154.737 29.7525 155.645 30.015 156.89 30.24L160.287 30.9375C162.147 31.3875 163.55 32.04 164.495 32.895C165.455 33.75 166.1 34.6425 166.43 35.5725C166.775 36.5025 166.947 37.305 166.947 37.98C166.947 39.585 166.505 40.9425 165.62 42.0525C164.735 43.1625 163.52 44.01 161.975 44.595C160.445 45.165 158.705 45.45 156.755 45.45ZM179.065 12.465V19.125H171.707V12.465H179.065ZM179.042 21.735V45H171.73V21.735H179.042ZM184.918 45V21.735H192.478V24.9975C192.988 24.2025 193.738 23.4375 194.728 22.7025C195.733 21.9525 197.15 21.5775 198.98 21.5775C200.375 21.5775 201.688 21.8475 202.918 22.3875C204.163 22.9275 205.175 23.79 205.955 24.975C206.735 26.145 207.125 27.6825 207.125 29.5875V45H199.43V30.6C199.43 29.58 199.1 28.815 198.44 28.305C197.78 27.78 197.023 27.5175 196.168 27.5175C195.298 27.5175 194.48 27.765 193.715 28.26C192.95 28.74 192.568 29.46 192.568 30.42V45H184.918Z" fill="#464646"/>
<path d="M213.137 12.465H220.81V45H213.137V12.465ZM227.914 12.465C228.124 12.465 228.656 12.465 229.511 12.465C230.366 12.465 231.371 12.465 232.526 12.465C233.681 12.465 234.814 12.4725 235.924 12.4875C237.034 12.4875 237.941 12.495 238.646 12.51C242.576 12.63 245.779 13.365 248.254 14.715C250.729 16.065 252.551 17.925 253.721 20.295C254.891 22.665 255.476 25.4325 255.476 28.5975C255.476 31.8675 254.869 34.7325 253.654 37.1925C252.439 39.6525 250.571 41.5725 248.051 42.9525C245.546 44.3175 242.359 45 238.489 45H227.914V12.465ZM235.609 18.5625V38.9025H238.714C240.184 38.9025 241.586 38.565 242.921 37.89C244.271 37.215 245.366 36.12 246.206 34.605C247.061 33.09 247.489 31.0575 247.489 28.5075C247.489 25.1175 246.694 22.6125 245.104 20.9925C243.529 19.3725 241.414 18.5625 238.759 18.5625H235.609Z" fill="#F42D2D"/>
<g clip-path="url(#clip0)">
<path d="M28 56C27.8334 56 27.6667 55.9746 27.506 55.9239C21.1012 53.9013 15.6173 49.9688 11.6469 44.5515C7.6767 39.134 5.57812 32.7205 5.57812 26.004V9.29688C5.57812 8.39081 6.31269 7.65625 7.21875 7.65625C11.9574 7.65625 16.2657 5.05794 18.4719 0.875219C18.7557 0.336984 19.3144 0 19.923 0H36.0769C36.6855 0 37.2442 0.336875 37.5281 0.875219C39.7343 5.05794 44.0426 7.65625 48.7714 7.65625C49.6775 7.65625 50.4219 8.39081 50.4219 9.29688V26.004C50.4219 32.7205 48.3233 39.134 44.3531 44.5514C40.3827 49.9687 34.8988 53.9012 28.494 55.9238C28.3333 55.9746 28.1666 56 28 56Z" fill="#599AB0"/>
<path d="M48.7714 7.65625C44.0426 7.65625 39.7343 5.05794 37.5281 0.875219C37.2443 0.336875 36.6856 0 36.077 0H28V56C28.1666 56 28.3333 55.9746 28.494 55.9239C34.8988 53.9013 40.3827 49.9688 44.3531 44.5515C48.3233 39.134 50.4219 32.7205 50.4219 26.004V9.29688C50.4219 8.39081 49.6775 7.65625 48.7714 7.65625V7.65625Z" fill="#5B5A9C"/>
<path d="M28 49.0199C27.7853 49.0199 27.5706 48.9778 27.3686 48.8936C18.1179 45.0361 12.1406 36.0515 12.1406 26.0041V14.8121C12.1406 14.1035 12.5956 13.4749 13.2688 13.2535C16.7511 12.1087 19.818 10.0033 22.1378 7.16494C22.4494 6.78366 22.9157 6.5625 23.4081 6.5625H32.5918C33.0842 6.5625 33.5507 6.78366 33.8622 7.16494C36.1819 10.0038 39.2488 12.1095 42.7312 13.2546C43.4044 13.476 43.8593 14.1046 43.8593 14.8132V26.0041C43.8593 36.0515 37.882 45.0361 28.6313 48.8935C28.4294 48.9777 28.2147 49.0199 28 49.0199V49.0199Z" fill="#F5F5FF"/>
<path d="M42.7313 13.2546C39.2489 12.1095 36.182 10.0038 33.8623 7.16494C33.5507 6.78366 33.0842 6.5625 32.5918 6.5625H28V49.0199C28.2147 49.0199 28.4294 48.9778 28.6314 48.8936C37.8821 45.0361 43.8594 36.0515 43.8594 26.0041V14.8132C43.8594 14.1046 43.4045 13.476 42.7313 13.2546V13.2546Z" fill="#E2E7FA"/>
<path d="M30.1875 34.6719H25.8125C24.9064 34.6719 24.1719 33.9373 24.1719 33.0312V28.6562H19.7969C18.8908 28.6562 18.1562 27.9217 18.1562 27.0156V22.6406C18.1562 21.7346 18.8908 21 19.7969 21H24.1719V16.625C24.1719 15.7189 24.9064 14.9844 25.8125 14.9844H30.1875C31.0936 14.9844 31.8281 15.7189 31.8281 16.625V21H36.2031C37.1092 21 37.8438 21.7346 37.8438 22.6406V27.0156C37.8438 27.9217 37.1092 28.6562 36.2031 28.6562H31.8281V33.0312C31.8281 33.9373 31.0936 34.6719 30.1875 34.6719ZM31.8281 28.6562V33.0312C31.8281 33.9373 31.0936 34.6719 30.1875 34.6719H25.8125C24.9064 34.6719 24.1719 33.9373 24.1719 33.0312V28.6562H31.8281ZM31.8281 21H36.2031C37.1092 21 37.8438 21.7346 37.8438 22.6406V27.0156C37.8438 27.9217 37.1092 28.6562 36.2031 28.6562H31.8281V21ZM24.1719 21V16.625C24.1719 15.7189 24.9064 14.9844 25.8125 14.9844H30.1875C31.0936 14.9844 31.8281 15.7189 31.8281 16.625V21H24.1719ZM24.1719 28.6562H19.7969C18.8908 28.6562 18.1562 27.9217 18.1562 27.0156V22.6406C18.1562 21.7346 18.8908 21 19.7969 21H24.1719" fill="#F42D2D"/>
<path d="M36.2031 21H31.8281V16.625C31.8281 15.7189 31.0936 14.9844 30.1875 14.9844H28V34.6719H30.1875C31.0936 34.6719 31.8281 33.9373 31.8281 33.0312V28.6562H36.2031C37.1092 28.6562 37.8438 27.9217 37.8438 27.0156V22.6406C37.8438 21.7346 37.1092 21 36.2031 21Z" fill="#E62830"/>
</g>
<defs>
<clipPath id="clip0">
<rect width="56" height="56" fill="white"/>
</clipPath>
</defs>
</svg>
